<svg width="1427" height="1033" viewBox="0 0 1427 1033" fill="none" xmlns="http://www.w3.org/2000/svg">
<g clip-path="url(#clip0_3320_46)">
<rect width="1427" height="1033" fill="#5F5151"/>
<g clip-path="url(#clip1_3320_46)">
<mask id="mask0_3320_46" style="mask-type:luminance" maskUnits="userSpaceOnUse" x="0" y="0" width="1440" height="1033">
<path d="M1440 0H0V1033H1440V0Z" fill="white"/>
</mask>
<g mask="url(#mask0_3320_46)">
<path d="M1440 0H0V1033H1440V0Z" fill="#FFFEFE" fill-opacity="0.98"/>
<path d="M2103.33 78.2734C1741.54 133.483 1174.31 245.214 1462.88 597.921C1830.11 1046.77 2727.49 929.18 2328.93 1275.61" stroke="white" stroke-width="8.2894"/>
<path d="M1975.77 56.8848C1613.97 112.095 1046.75 223.826 1335.32 576.532C1702.54 1025.37 2599.93 907.791 2201.37 1254.23" stroke="white" stroke-width="8.2894"/>
<path d="M1848.26 35.1348C1486.47 90.3447 919.241 202.075 1207.81 554.782C1575.04 1003.63 2472.42 886.041 2073.86 1232.48" stroke="white" stroke-width="8.2894"/>
<path d="M1720.6 14.3594C1358.81 69.5692 791.577 181.301 1080.15 534.006C1447.37 982.851 2344.76 865.267 1946.2 1211.7" stroke="white" stroke-width="8.2894"/>
<path d="M1592.64 -4.4707C1230.84 50.7392 663.616 162.471 952.187 515.177C1319.41 964.02 2216.8 846.436 1818.24 1192.87" stroke="white" stroke-width="8.2894"/>
<path d="M1464.33 -20.6562C1102.53 34.5537 535.301 146.285 823.872 498.991C1191.1 947.836 2088.48 830.251 1689.93 1176.68" stroke="white" stroke-width="8.2894"/>
<path d="M1335.66 -33.7305C973.865 21.4794 406.637 133.21 695.208 485.917C1062.43 934.761 1959.82 817.176 1561.26 1163.61" stroke="white" stroke-width="8.2894"/>
<path d="M1205.91 -43.5156C844.11 11.6943 276.881 123.426 565.452 476.131C932.679 924.976 1830.07 807.392 1431.51 1153.82" stroke="white" stroke-width="8.2894"/>
<path d="M1076.81 -51.0469C715.011 4.16299 147.782 115.894 436.353 468.6C803.58 917.445 1700.97 799.86 1302.41 1146.29" stroke="white" stroke-width="8.2894"/>
<path d="M947.614 -56.6973C585.818 -1.48741 18.5895 110.243 307.16 462.95C674.387 911.794 1571.77 794.209 1173.21 1140.64" stroke="white" stroke-width="8.2894"/>
<path d="M818.345 -60.207C456.55 -4.99715 -110.679 106.734 177.892 459.44C545.118 908.285 1442.5 790.7 1043.95 1137.13" stroke="white" stroke-width="8.2894"/>
<path d="M697.418 -61C331.157 -5.48305 -243.071 106.87 49.0604 461.537C420.819 912.877 1329.28 794.638 925.802 1143" stroke="white" stroke-width="8.2894"/>
<path d="M559.733 -59.4238C197.937 -4.2139 -369.291 107.518 -80.7205 460.223C286.506 909.067 1183.89 791.483 785.333 1137.91" stroke="white" stroke-width="8.2894"/>
<path d="M430.523 -54.1738C68.7274 1.03606 -498.501 112.767 -209.931 465.474C157.296 914.318 1054.68 796.733 656.123 1143.17" stroke="white" stroke-width="8.2894"/>
<path d="M301.544 -44.7676C-60.2513 10.4423 -627.48 122.173 -338.909 474.88C28.3174 923.724 925.704 806.139 527.144 1152.57" stroke="white" stroke-width="8.2894"/>
<path d="M173.039 -30.1758C-188.756 25.0341 -755.985 136.765 -467.414 489.472C-100.187 938.315 797.199 820.731 398.639 1167.16" stroke="white" stroke-width="8.2894"/>
<path d="M45.4472 -8.9082C-316.348 46.3017 -883.577 158.033 -595.006 510.739C-227.78 959.584 669.607 841.999 271.047 1188.43" stroke="white" stroke-width="8.2894"/>
<path d="M-80.35 21.1602C-442.146 76.3701 -1009.37 188.102 -720.803 540.808C-353.577 989.651 543.81 872.067 145.25 1218.5" stroke="white" stroke-width="8.2894"/>
<path d="M-202.462 61.2676C-564.258 116.478 -1131.49 228.208 -842.916 580.915C-475.689 1029.76 421.698 912.175 23.1379 1258.6" stroke="white" stroke-width="8.2894"/>
</g>
</g>
</g>
<defs>
<clipPath id="clip0_3320_46">
<rect width="1427" height="1033" fill="white"/>
</clipPath>
<clipPath id="clip1_3320_46">
<rect width="1440" height="1033" fill="white"/>
</clipPath>
</defs>
</svg>
